<mxfile host="app.diagrams.net" modified="2022-10-09T13:56:46.614Z" agent="5.0 (Windows)" etag="EnaPRi0e9qZG17TFQKGN" version="20.4.0" type="github">
  <diagram id="prtHgNgQTEPvFCAcTncT" name="Page-1">
    <mxGraphModel dx="813" dy="441" grid="1" gridSize="10" guides="1" tooltips="1" connect="1" arrows="1" fold="1" page="1" pageScale="1" pageWidth="827" pageHeight="1169" math="0" shadow="0">
      <root>
        <mxCell id="0" />
        <mxCell id="1" parent="0" />
        <mxCell id="AnzIzo2QIbqtz6C-3jCv-27" value="" style="group" vertex="1" connectable="0" parent="1">
          <mxGeometry x="60" y="160" width="680" height="200" as="geometry" />
        </mxCell>
        <mxCell id="AnzIzo2QIbqtz6C-3jCv-23" value="" style="group" vertex="1" connectable="0" parent="AnzIzo2QIbqtz6C-3jCv-27">
          <mxGeometry width="680" height="200" as="geometry" />
        </mxCell>
        <mxCell id="AnzIzo2QIbqtz6C-3jCv-1" value="배열 선언" style="rounded=0;whiteSpace=wrap;html=1;strokeColor=none;fillColor=none;" vertex="1" parent="AnzIzo2QIbqtz6C-3jCv-23">
          <mxGeometry y="80" width="80" height="40" as="geometry" />
        </mxCell>
        <mxCell id="AnzIzo2QIbqtz6C-3jCv-10" value="identifier" style="rounded=0;whiteSpace=wrap;html=1;" vertex="1" parent="AnzIzo2QIbqtz6C-3jCv-23">
          <mxGeometry x="320" y="80" width="80" height="40" as="geometry" />
        </mxCell>
        <mxCell id="AnzIzo2QIbqtz6C-3jCv-16" value="" style="endArrow=classic;html=1;rounded=0;" edge="1" parent="AnzIzo2QIbqtz6C-3jCv-23" source="AnzIzo2QIbqtz6C-3jCv-10">
          <mxGeometry width="50" height="50" relative="1" as="geometry">
            <mxPoint x="440" y="240" as="sourcePoint" />
            <mxPoint x="680" y="100" as="targetPoint" />
          </mxGeometry>
        </mxCell>
        <mxCell id="AnzIzo2QIbqtz6C-3jCv-22" value="" style="group" vertex="1" connectable="0" parent="AnzIzo2QIbqtz6C-3jCv-23">
          <mxGeometry x="120" width="160" height="200" as="geometry" />
        </mxCell>
        <mxCell id="AnzIzo2QIbqtz6C-3jCv-2" value="double" style="ellipse;whiteSpace=wrap;html=1;" vertex="1" parent="AnzIzo2QIbqtz6C-3jCv-22">
          <mxGeometry x="40" y="160" width="80" height="40" as="geometry" />
        </mxCell>
        <mxCell id="AnzIzo2QIbqtz6C-3jCv-3" value="int" style="ellipse;whiteSpace=wrap;html=1;" vertex="1" parent="AnzIzo2QIbqtz6C-3jCv-22">
          <mxGeometry x="40" y="80" width="80" height="40" as="geometry" />
        </mxCell>
        <mxCell id="AnzIzo2QIbqtz6C-3jCv-4" value="char" style="ellipse;whiteSpace=wrap;html=1;" vertex="1" parent="AnzIzo2QIbqtz6C-3jCv-22">
          <mxGeometry x="40" width="80" height="40" as="geometry" />
        </mxCell>
        <mxCell id="AnzIzo2QIbqtz6C-3jCv-20" value="" style="group" vertex="1" connectable="0" parent="AnzIzo2QIbqtz6C-3jCv-22">
          <mxGeometry y="20" height="160" as="geometry" />
        </mxCell>
        <mxCell id="AnzIzo2QIbqtz6C-3jCv-6" value="" style="endArrow=none;html=1;rounded=0;" edge="1" parent="AnzIzo2QIbqtz6C-3jCv-20">
          <mxGeometry width="50" height="50" relative="1" as="geometry">
            <mxPoint y="160" as="sourcePoint" />
            <mxPoint as="targetPoint" />
          </mxGeometry>
        </mxCell>
        <mxCell id="AnzIzo2QIbqtz6C-3jCv-7" value="" style="endArrow=classic;html=1;rounded=0;" edge="1" parent="AnzIzo2QIbqtz6C-3jCv-20" target="AnzIzo2QIbqtz6C-3jCv-4">
          <mxGeometry width="50" height="50" relative="1" as="geometry">
            <mxPoint as="sourcePoint" />
            <mxPoint x="280" y="200" as="targetPoint" />
          </mxGeometry>
        </mxCell>
        <mxCell id="AnzIzo2QIbqtz6C-3jCv-8" value="" style="endArrow=classic;html=1;rounded=0;" edge="1" parent="AnzIzo2QIbqtz6C-3jCv-20" target="AnzIzo2QIbqtz6C-3jCv-2">
          <mxGeometry width="50" height="50" relative="1" as="geometry">
            <mxPoint y="160" as="sourcePoint" />
            <mxPoint x="60" y="280" as="targetPoint" />
          </mxGeometry>
        </mxCell>
        <mxCell id="AnzIzo2QIbqtz6C-3jCv-21" value="" style="group" vertex="1" connectable="0" parent="AnzIzo2QIbqtz6C-3jCv-22">
          <mxGeometry x="160" y="19.5" height="160.5" as="geometry" />
        </mxCell>
        <mxCell id="AnzIzo2QIbqtz6C-3jCv-11" value="" style="endArrow=none;html=1;rounded=0;" edge="1" parent="AnzIzo2QIbqtz6C-3jCv-21">
          <mxGeometry width="50" height="50" relative="1" as="geometry">
            <mxPoint y="160" as="sourcePoint" />
            <mxPoint as="targetPoint" />
          </mxGeometry>
        </mxCell>
        <mxCell id="AnzIzo2QIbqtz6C-3jCv-14" value="" style="endArrow=none;html=1;rounded=0;" edge="1" parent="AnzIzo2QIbqtz6C-3jCv-21" source="AnzIzo2QIbqtz6C-3jCv-4">
          <mxGeometry width="50" height="50" relative="1" as="geometry">
            <mxPoint x="70" y="250.5" as="sourcePoint" />
            <mxPoint y="0.5" as="targetPoint" />
          </mxGeometry>
        </mxCell>
        <mxCell id="AnzIzo2QIbqtz6C-3jCv-15" value="" style="endArrow=none;html=1;rounded=0;" edge="1" parent="AnzIzo2QIbqtz6C-3jCv-21" source="AnzIzo2QIbqtz6C-3jCv-2">
          <mxGeometry width="50" height="50" relative="1" as="geometry">
            <mxPoint x="-80" y="280.5" as="sourcePoint" />
            <mxPoint y="160.5" as="targetPoint" />
          </mxGeometry>
        </mxCell>
        <mxCell id="AnzIzo2QIbqtz6C-3jCv-5" value="" style="endArrow=classic;html=1;rounded=0;" edge="1" parent="AnzIzo2QIbqtz6C-3jCv-23" source="AnzIzo2QIbqtz6C-3jCv-1" target="AnzIzo2QIbqtz6C-3jCv-3">
          <mxGeometry width="50" height="50" relative="1" as="geometry">
            <mxPoint x="390" y="430" as="sourcePoint" />
            <mxPoint x="440" y="380" as="targetPoint" />
          </mxGeometry>
        </mxCell>
        <mxCell id="AnzIzo2QIbqtz6C-3jCv-9" value="" style="endArrow=classic;html=1;rounded=0;" edge="1" parent="AnzIzo2QIbqtz6C-3jCv-23" source="AnzIzo2QIbqtz6C-3jCv-3" target="AnzIzo2QIbqtz6C-3jCv-10">
          <mxGeometry width="50" height="50" relative="1" as="geometry">
            <mxPoint x="390" y="430" as="sourcePoint" />
            <mxPoint x="360" y="260" as="targetPoint" />
          </mxGeometry>
        </mxCell>
        <mxCell id="AnzIzo2QIbqtz6C-3jCv-19" value="digit" style="rounded=0;whiteSpace=wrap;html=1;" vertex="1" parent="AnzIzo2QIbqtz6C-3jCv-23">
          <mxGeometry x="480" y="160" width="80" height="40" as="geometry" />
        </mxCell>
        <mxCell id="AnzIzo2QIbqtz6C-3jCv-26" value="" style="group" vertex="1" connectable="0" parent="AnzIzo2QIbqtz6C-3jCv-27">
          <mxGeometry x="440" y="100" width="160" height="80" as="geometry" />
        </mxCell>
        <mxCell id="AnzIzo2QIbqtz6C-3jCv-17" value="" style="endArrow=none;html=1;rounded=0;" edge="1" parent="AnzIzo2QIbqtz6C-3jCv-26">
          <mxGeometry width="50" height="50" relative="1" as="geometry">
            <mxPoint x="160" y="80" as="sourcePoint" />
            <mxPoint x="160" as="targetPoint" />
          </mxGeometry>
        </mxCell>
        <mxCell id="AnzIzo2QIbqtz6C-3jCv-18" value="" style="endArrow=classic;html=1;rounded=0;" edge="1" parent="AnzIzo2QIbqtz6C-3jCv-26">
          <mxGeometry width="50" height="50" relative="1" as="geometry">
            <mxPoint x="160" y="80" as="sourcePoint" />
            <mxPoint x="120" y="80" as="targetPoint" />
          </mxGeometry>
        </mxCell>
        <mxCell id="AnzIzo2QIbqtz6C-3jCv-24" value="" style="endArrow=none;html=1;rounded=0;entryX=0;entryY=0.5;entryDx=0;entryDy=0;" edge="1" parent="AnzIzo2QIbqtz6C-3jCv-26" target="AnzIzo2QIbqtz6C-3jCv-19">
          <mxGeometry width="50" height="50" relative="1" as="geometry">
            <mxPoint y="80" as="sourcePoint" />
            <mxPoint x="-60" y="120" as="targetPoint" />
          </mxGeometry>
        </mxCell>
        <mxCell id="AnzIzo2QIbqtz6C-3jCv-25" value="" style="endArrow=classic;html=1;rounded=0;" edge="1" parent="AnzIzo2QIbqtz6C-3jCv-26">
          <mxGeometry width="50" height="50" relative="1" as="geometry">
            <mxPoint y="80" as="sourcePoint" />
            <mxPoint as="targetPoint" />
          </mxGeometry>
        </mxCell>
      </root>
    </mxGraphModel>
  </diagram>
</mxfile>
